<svg xmlns="http://www.w3.org/2000/svg" width="219.907" height="77.383" viewBox="0 0 219.907 77.383">
  <g id="Groupe_10" data-name="Groupe 10" transform="translate(-151.186 -47.195)">
    <g id="Groupe_16" data-name="Groupe 16" transform="translate(-62.585 -130.887)">
      <g id="Groupe_18" data-name="Groupe 18" transform="translate(365.035 193.672)">
        <g id="Groupe_23" data-name="Groupe 23">
          <path id="Tracé_1" data-name="Tracé 1" d="M393.587,312.373l-.02-.037Z" transform="translate(-382.635 -276.486)" fill="#51318f"/>
          <path id="Tracé_2" data-name="Tracé 2" d="M392.568,267.325v0l.014-.033C392.577,267.3,392.573,267.315,392.568,267.325Z" transform="translate(-382.018 -248.703)" fill="#51318f"/>
          <path id="Tracé_3" data-name="Tracé 3" d="M392.578,267.6l-.014.034v.005Z" transform="translate(-382.016 -248.888)" fill="#51318f"/>
          <path id="Tracé_4" data-name="Tracé 4" d="M392.574,267.894c-.005.014-.009.029-.014.042v.008C392.565,267.928,392.569,267.911,392.574,267.894Z" transform="translate(-382.013 -249.072)" fill="#51318f"/>
          <path id="Tracé_5" data-name="Tracé 5" d="M392.57,268.194c-.005.019-.009.038-.014.057v.016C392.56,268.242,392.564,268.218,392.57,268.194Z" transform="translate(-382.01 -249.257)" fill="#51318f"/>
          <path id="Tracé_6" data-name="Tracé 6" d="M392.538,268.665c.007-.057.011-.115.02-.171-.006.029-.009.059-.015.089v.026Z" transform="translate(-382 -249.442)" fill="#51318f"/>
          <path id="Tracé_7" data-name="Tracé 7" d="M374.734,254.2a14.427,14.427,0,0,0-1.9,1.5c-.254.282-.5.569-.738.866a17.863,17.863,0,0,0-1.493,2.206q-.351.611-.654,1.248a15.762,15.762,0,0,1,1.335-2c.306-.455.626-.9.973-1.324A17.55,17.55,0,0,1,374.734,254.2Z" transform="translate(-368.069 -240.625)" fill="#51318f"/>
          <g id="Groupe_16-2" data-name="Groupe 16" transform="translate(1.13 7.486)">
            <path id="Tracé_8" data-name="Tracé 8" d="M408.628,256.62c-.076-.439-.155-.877-.251-1.312s-.2-.868-.317-1.3-.248-.858-.4-1.279c-.07-.212-.152-.42-.229-.63l-.125-.311-.063-.156-.067-.154c-.174-.412-.373-.815-.583-1.211l-.162-.3c-.056-.1-.113-.193-.17-.29-.029-.048-.056-.1-.087-.145l-.09-.142c-.061-.094-.118-.191-.183-.283a12.717,12.717,0,0,0-.808-1.08l-.22-.256-.229-.248c-.076-.084-.157-.161-.236-.24l-.238-.236-.12-.118c-.039-.039-.082-.075-.124-.113l-.249-.225c-.083-.074-.165-.152-.251-.223l-.259-.213a16.617,16.617,0,0,0-2.206-1.528,16.855,16.855,0,0,0-2.42-1.155,18.3,18.3,0,0,0-2.564-.778,20.085,20.085,0,0,0-5.321-.462,20.627,20.627,0,0,0-2.658.3,19.978,19.978,0,0,0-2.594.645,18.68,18.68,0,0,0-2.48,1c-.2.095-.4.2-.6.305-.1.05-.2.107-.293.161l-.291.165-.286.174c-.095.059-.192.114-.284.177-.185.123-.375.241-.556.371a18.311,18.311,0,0,0-2.076,1.677c-.371.35-.723.72-1.064,1.1a14.425,14.425,0,0,1,1.9-1.5,17.918,17.918,0,0,1,6.128-3.315,19.693,19.693,0,0,1,2.556-.61,20.474,20.474,0,0,1,2.613-.276,19.7,19.7,0,0,1,5.216.482,17.513,17.513,0,0,1,4.867,1.9,16.249,16.249,0,0,1,2.148,1.493l.252.208c.084.07.162.146.244.218l.243.22c.04.037.082.072.12.111l.116.115.232.231c.077.077.157.152.228.233l.221.24.212.247a12.216,12.216,0,0,1,.783,1.042c.063.089.118.182.178.274l.088.138c.029.046.056.093.084.14l.166.281.158.286c.2.385.4.776.569,1.178l.066.15.062.152.123.3c.075.2.156.408.225.616.147.412.271.832.392,1.253s.223.848.314,1.277c.188.857.33,1.724.441,2.6a42.205,42.205,0,0,1,.308,5.269q.005,2.654.03,5.306.019,2.166.043,4.332c0,.324.006.649.01.973l.014,1.071,0,.333v.059l0,.359.01.8.01.753.01.786.01.751,0,.395c0,.121,0,.253.006.381q.005.359.011.748,0,.368.01.76c0,.244.006.492.01.748s.006.492.009.745c0,.124,0,.249,0,.376h0l0,.258,0,.112c.039,3.255.083,6.982.137,9.379.009-2.792.013-6.038.014-9.377v-.374h0v-.371c0-.248,0-.5,0-.744s0-.5,0-.747v-6.1c0-.715,0-1.423,0-2.114,0-1.508,0-2.951,0-4.291l.011-5.3a42.662,42.662,0,0,0-.281-5.319C408.764,257.5,408.7,257.06,408.628,256.62Z" transform="translate(-373.843 -240.718)" fill="#51318f"/>
            <path id="Tracé_9" data-name="Tracé 9" d="M404.618,260.079q0-1.4-.089-2.8t-.287-2.788a26.733,26.733,0,0,0-.538-2.755,22.56,22.56,0,0,0-.849-2.681,18.114,18.114,0,0,0-1.229-2.536c-.057-.1-.123-.2-.184-.3l-.188-.3-.2-.292c-.066-.1-.131-.2-.2-.289-.141-.189-.278-.381-.429-.562l-.222-.275-.233-.266c-.152-.18-.32-.346-.483-.518-.08-.087-.167-.166-.252-.248l-.256-.244-.531-.464c-.044-.038-.088-.078-.134-.115l-.138-.11-.276-.219a18.692,18.692,0,0,0-2.346-1.56l-.622-.332c-.211-.1-.423-.2-.635-.306-.428-.194-.859-.38-1.3-.541a19.61,19.61,0,0,0-2.7-.795,20.944,20.944,0,0,0-5.593-.444,20.388,20.388,0,0,0-5.508,1.048l-.167.056-.165.062-.33.123c-.11.039-.218.086-.326.131l-.325.135c-.215.094-.426.2-.64.293l-.313.16-.157.08c-.052.026-.1.053-.155.083a16.9,16.9,0,0,0-2.344,1.549,18.167,18.167,0,0,0-2.054,1.912,18.644,18.644,0,0,0-1.732,2.2,20.6,20.6,0,0,0-2.446,5.017c-.02.062-.036.125-.056.187a16.187,16.187,0,0,1,.884-1.906,19.877,19.877,0,0,1,1.789-3.181,18.621,18.621,0,0,1,1.739-2.155,17.877,17.877,0,0,1,2.046-1.859,17.058,17.058,0,0,1,2.318-1.5c.05-.029.1-.055.153-.08l.154-.077.308-.154c.21-.093.418-.192.63-.282l.32-.13c.107-.043.213-.088.321-.126l.325-.118.162-.059.164-.053a19.445,19.445,0,0,1,2.677-.679,21.03,21.03,0,0,1,2.745-.312,20.57,20.57,0,0,1,5.489.464,19.037,19.037,0,0,1,5.142,1.944,18.256,18.256,0,0,1,2.29,1.528l.269.214.135.107c.044.037.087.075.13.113l.518.454.247.237c.082.079.167.157.244.241.157.166.32.328.467.5l.227.257.216.267c.147.175.28.362.418.545.07.091.133.186.2.281l.194.284.183.291c.06.1.124.193.18.293a17.7,17.7,0,0,1,1.2,2.475,24.58,24.58,0,0,1,1.377,5.344q.205,1.37.3,2.756t.1,2.774l.044,5.575c.012,1.44.025,2.992.039,4.608.007.782.013,1.581.02,2.389,0,.1,0,.209,0,.315v.068l0,.362c0,.257,0,.518.007.777s0,.5.007.748,0,.51.007.766,0,.5.007.747,0,.5.007.75,0,.5.007.746,0,.49.007.734,0,.5.007.745,0,.478.007.718c0,.123,0,.246,0,.369h0l0,.2,0,.179c.036,3.546.078,7,.126,9.988.022-2.988.038-6.445.048-9.992,0-.063,0-.126,0-.19s0-.125,0-.188h0c0-.122,0-.243,0-.365q0-.358,0-.716t0-.744q0-.367,0-.733t0-.745q0-.371,0-.742c0-.249,0-.5,0-.746s0-.51,0-.764,0-.5,0-.748,0-.518,0-.775v-.743c0-.831,0-1.653,0-2.456,0-1.6,0-3.13,0-4.555Z" transform="translate(-367.984 -238.308)" fill="#51318f"/>
          </g>
          <g id="Groupe_17" data-name="Groupe 17">
            <path id="Tracé_10" data-name="Tracé 10" d="M513.608,300.764c-.168.21-.346.405-.521.606C513.266,301.168,513.441,300.966,513.608,300.764Z" transform="translate(-456.359 -269.347)" fill="#51318f"/>
            <path id="Tracé_11" data-name="Tracé 11" d="M433.668,221.471l0,0-6.649-2.7L420.5,221.8c.008.706.032,2.879.049,5.444.023,3.527.034,8.946-.029,11.11a39.164,39.164,0,0,1-1.239,8.149,30.084,30.084,0,0,1-1.079,3.322q.384-.758.722-1.589a27.017,27.017,0,0,0,1.224-3.847,35.072,35.072,0,0,0,.858-5.478c.32-4.116.175-16.721.173-16.833l.7.278c0,.361.143,12.51-.176,16.61a31.652,31.652,0,0,1-2.634,10.691,22.9,22.9,0,0,0,1.912-4.46,31.144,31.144,0,0,0,1.21-5.7c.427-3.793.385-14.938.372-16.853l.705.293c.013,2.484.034,12.974-.379,16.639a31.892,31.892,0,0,1-1.239,5.836,23.668,23.668,0,0,1-1.934,4.53,21.656,21.656,0,0,0,2.059-3.968,26.386,26.386,0,0,0,1.6-5.892c.536-3.821.566-14.815.566-16.863l.7.293c0,2.585-.047,12.913-.574,16.668a27.082,27.082,0,0,1-1.647,6.055,22.388,22.388,0,0,1-2.109,4.07,20.919,20.919,0,0,0,2.235-3.581,22.6,22.6,0,0,0,2.014-6.055c.631-3.852.742-14.7.759-16.874l.7.292c-.023,2.656-.144,12.9-.767,16.7a23.311,23.311,0,0,1-2.077,6.252,21.532,21.532,0,0,1-2.382,3.791,20.159,20.159,0,0,0,2.527-3.373,19.335,19.335,0,0,0,2.428-6.2c.718-3.885.914-14.595.951-16.887l.7.29c-.046,2.723-.248,12.878-.958,16.725a20.058,20.058,0,0,1-2.516,6.431,21.315,21.315,0,0,1-1.651,2.376c-.167.2-.339.406-.521.606-2.779,3.061-8.026,4.477-8.058,4.487l-.039.012-.014,0a.368.368,0,0,1-.089.018v-.881c0-2.986,0-5.965,0-7.382,0-8.969-1.687-16.783-7.59-22.413-4.571-4.36-10.128-6.185-17.44-5.814a24.391,24.391,0,0,0-15.277,5.765l-.141.153a13.1,13.1,0,0,0-1.155.989c-.393.374-.763.77-1.117,1.18s-.685.838-1,1.277-.61.893-.888,1.356a23.3,23.3,0,0,0-1.462,2.886,30.288,30.288,0,0,0-1.838,6.184c-.053.283-.094.568-.141.852-.009.056-.019.112-.028.169-.051.309-.1.621-.138.934-.054.412-.108.825-.149,1.239q-.07.71-.114,1.423c-.006.094-.019.234-.027.348v.01c-.006.035-.013.069-.018.1,0,15.433,13.3,22.152,20.153,23.767a52.767,52.767,0,0,0,13.679,1.3c.344.023.689.046,1.033.059.043,3.081.091,6.57.149,8.8v.017l-.008-8.813v-.368h0v-8.1l0-1.773,0-4.043.008-5.049a48.5,48.5,0,0,0-.2-5.063c-.081-.842-.192-1.682-.345-2.517l-.057-.313-.064-.312c-.04-.208-.091-.415-.136-.622-.1-.413-.2-.825-.328-1.231s-.257-.812-.407-1.21-.318-.792-.5-1.177a12.653,12.653,0,0,0-1.325-2.194,13.375,13.375,0,0,0-3.809-3.389,15.93,15.93,0,0,0-4.744-1.854,18.959,18.959,0,0,0-4.048-.428,20.92,20.92,0,0,0-3.826.249,18.92,18.92,0,0,0-11.994,6.731,15.945,15.945,0,0,0-2.079,3.5c.053-.162.1-.328.156-.489.211-.6.456-1.181.718-1.757a16.177,16.177,0,0,0-.884,1.906c-.153.474-.289.954-.41,1.436q-.1.29-.189.588c.049-.246.1-.491.154-.735.125-.544.261-1.085.42-1.619a25.368,25.368,0,0,1,.986-2.747,21.807,21.807,0,0,1,1.319-2.6,18.444,18.444,0,0,1,3.672-4.484c.184-.157.365-.318.557-.466.1-.075.188-.153.285-.225l.291-.216c.049-.036.1-.073.146-.107l.149-.1.3-.206.306-.194.153-.1c.051-.032.1-.061.156-.092a15.337,15.337,0,0,1,2.628-1.213,19.9,19.9,0,0,1,2.8-.76,21.849,21.849,0,0,1,2.879-.37,21.5,21.5,0,0,1,5.774.412,20.952,20.952,0,0,1,2.787.792l.339.127c.113.043.227.083.338.132l.667.283.654.311c.11.05.215.109.322.166l.32.17a20.167,20.167,0,0,1,2.434,1.567l.567.451.141.113c.047.038.091.079.136.118l.272.238c.185.155.352.328.527.494s.338.344.5.518a16.228,16.228,0,0,1,1.769,2.283,18.391,18.391,0,0,1,1.363,2.552,24.2,24.2,0,0,1,1.625,5.562l.032.179.029.179.056.359c.036.24.067.48.1.721.058.482.112.964.151,1.448.083.968.123,1.94.138,2.912l.037,5.856c.011,1.531.021,3.176.033,4.886.006.893.013,1.8.019,2.727,0,.1,0,.2,0,.309v.069l0,.36c0,.252,0,.505.005.758s0,.5.005.745,0,.5.006.743,0,.5.006.744,0,.483.006.724,0,.5.006.743l.006.708q0,.372.006.743,0,.345.006.69c0,.121,0,.241,0,.362h0v.134q0,.122,0,.244c.033,3.767.07,7.447.115,10.641.027-3.2.046-6.88.061-10.65v-.382c0-.12,0-.238,0-.358,0-.229,0-.459,0-.689q0-.371,0-.742,0-.353,0-.707,0-.372,0-.743t0-.716c0-.248,0-.5,0-.743s0-.494,0-.74,0-.5,0-.744,0-.505,0-.756c0-.119,0-.24,0-.359V261c0-.1,0-.206,0-.309,0-.948,0-1.882.006-2.8,0-1.689.005-3.312.007-4.825l0-5.861c-.01-.98-.046-1.961-.125-2.939-.036-.489-.089-.978-.145-1.466-.032-.243-.062-.487-.1-.73l-.056-.364-.028-.182-.031-.182a26.753,26.753,0,0,0-.648-2.878,21.843,21.843,0,0,0-.993-2.782,18.745,18.745,0,0,0-1.39-2.612,16.567,16.567,0,0,0-1.81-2.345c-.17-.18-.336-.363-.518-.531s-.352-.348-.542-.507l-.279-.244c-.047-.04-.093-.082-.14-.121l-.145-.115-.58-.46a20.544,20.544,0,0,0-2.49-1.6l-.327-.173c-.11-.057-.217-.118-.329-.169l-.669-.316-.682-.288c-.113-.05-.229-.091-.345-.134l-.347-.129a20.717,20.717,0,0,0-2.845-.8,21.894,21.894,0,0,0-5.879-.39,21.077,21.077,0,0,0-5.767,1.189A15.65,15.65,0,0,0,374.3,227.2c-.053.032-.107.062-.159.095l-.155.1-.311.2-.3.212-.151.106c-.05.036-.1.074-.148.111l-.295.223c-.1.075-.192.155-.287.233-.193.153-.376.318-.561.48a18.637,18.637,0,0,0-3.667,4.586,23.329,23.329,0,0,0-2.239,5.419,27.24,27.24,0,0,0-.6,2.7c-.009.054-.022.108-.031.163-.012.075-.019.152-.031.227-.031.123-.062.246-.091.371.009-.077.019-.153.029-.234.016-.116.033-.237.052-.366q.224-1.52.59-3.012a29.453,29.453,0,0,1,.887-2.934,24.658,24.658,0,0,1,1.218-2.808c.229-.456.48-.9.738-1.34.065-.11.134-.216.2-.325s.132-.218.2-.323c.143-.211.279-.426.43-.631a17.6,17.6,0,0,1,1.959-2.335c.09-.089.18-.18.271-.267l.28-.258.14-.129.144-.124.289-.248.3-.237.149-.118c.05-.039.1-.075.153-.113l.307-.225c.1-.072.21-.141.315-.211.053-.035.1-.071.158-.1l.163-.1c.109-.064.216-.131.327-.193.224-.118.443-.245.673-.352l.342-.166.349-.153.174-.076c.058-.026.118-.048.176-.071l.354-.14c.117-.049.238-.087.358-.131l.359-.127c.243-.075.484-.155.728-.227l.367-.1c.123-.034.244-.07.368-.1l.37-.09.185-.045.187-.039a22.983,22.983,0,0,1,6.061-.483,22.038,22.038,0,0,1,5.958,1.171,21.037,21.037,0,0,1,2.784,1.222l.335.181c.111.061.225.117.332.185l.651.393.081.049.079.053.158.106.316.212.158.106c.052.036.106.07.156.109l.305.227.306.226c.051.038.1.075.152.114l.146.121c.2.162.393.32.585.485l.561.512c.023.021.047.042.07.064l.067.067.134.134.268.27a18.345,18.345,0,0,1,1.92,2.35,19.656,19.656,0,0,1,1.521,2.631,24.373,24.373,0,0,1,1.888,5.781,33.939,33.939,0,0,1,.624,6.073l.029,6.144c.008,1.622.018,3.361.028,5.165q.008,1.506.017,3.068v.369c0,.119,0,.24,0,.359q0,.368,0,.739c0,.247,0,.494,0,.742s0,.479,0,.718,0,.493,0,.741,0,.467,0,.7,0,.494,0,.74q0,.34,0,.68,0,.37,0,.739,0,.332,0,.664c0,.118,0,.236,0,.353h0v.08l0,.3c.029,4,.062,7.918.1,11.332.031-3.419.056-7.342.075-11.348l0-.311v-.074h0c0-.117,0-.233,0-.35,0-.221,0-.442,0-.663q0-.369,0-.739,0-.338,0-.676,0-.37,0-.74,0-.348,0-.7c0-.248,0-.494,0-.741s0-.476,0-.714,0-.495,0-.741,0-.491,0-.736c0-.12,0-.241,0-.361v-.366c0-1.063.007-2.111.01-3.138.005-1.78.01-3.494.013-5.1l.012-6.153a34.322,34.322,0,0,0-.6-6.145,26,26,0,0,0-.767-3,22.775,22.775,0,0,0-1.14-2.882,20.059,20.059,0,0,0-1.549-2.689,18.812,18.812,0,0,0-1.961-2.407l-.274-.276-.137-.138-.069-.069-.072-.066-.576-.523c-.2-.169-.4-.33-.6-.5l-.151-.123c-.051-.04-.1-.077-.155-.116l-.312-.231-.312-.231c-.051-.04-.106-.075-.159-.111l-.161-.108-.323-.216-.161-.108-.08-.054-.083-.05-.666-.4c-.109-.069-.226-.126-.339-.189l-.341-.184a21.415,21.415,0,0,0-2.843-1.241,21.732,21.732,0,0,0-3-.8,22.5,22.5,0,0,0-3.076-.372,23.459,23.459,0,0,0-3.1.056,22.989,22.989,0,0,0-3.061.466l-.189.041-.188.047-.376.094c-.126.029-.249.067-.374.1l-.372.107c-.247.075-.492.157-.738.236l-.364.133c-.121.045-.244.085-.363.136l-.359.146c-.06.025-.12.047-.179.074l-.177.079-.354.159-.348.172c-.234.111-.458.243-.686.366-.113.064-.222.134-.333.2l-.166.1c-.055.035-.108.072-.162.108-.107.073-.216.144-.322.219l-.311.232c-.052.039-.1.077-.155.116l-.151.122-.3.244-.292.255-.146.127-.141.133-.282.266c-.092.09-.182.184-.273.275a17.86,17.86,0,0,0-1.961,2.391c-.151.209-.286.429-.428.644-.072.107-.135.22-.2.329s-.135.219-.2.331c-.256.447-.506.9-.73,1.361a26.479,26.479,0,0,0-2.034,5.808q-.344,1.5-.54,3.03c-.044.342-.073.63-.095.9,0,.031-.006.064-.008.094-.032.156-.061.314-.089.473l0-.052c.033-.36.081-.867.146-1.423.125-1.066.291-2.127.507-3.178s.479-2.092.794-3.115a28.142,28.142,0,0,1,1.117-3.011q.324-.734.691-1.448t.789-1.4q.419-.682.891-1.33c.315-.43.648-.848,1-1.249s.72-.786,1.11-1.149a12.517,12.517,0,0,1,1.219-1.022,13.948,13.948,0,0,1,2.8-1.5,21.089,21.089,0,0,1,3.044-.968,23.854,23.854,0,0,1,3.152-.528,23.452,23.452,0,0,1,3.194-.1q.8.03,1.593.116t1.58.231a21.763,21.763,0,0,1,3.089.8c.5.169,1,.362,1.491.57.246.1.487.215.729.325s.479.231.715.355c.472.245.936.505,1.388.787s.9.574,1.327.887l.162.117.159.12c.106.081.212.16.317.242.207.167.416.331.617.505s.4.35.6.527l.29.273c.1.09.19.186.285.279a20.152,20.152,0,0,1,2.074,2.418,21.367,21.367,0,0,1,1.674,2.714,23.587,23.587,0,0,1,1.272,2.929,27.461,27.461,0,0,1,.89,3.071,31.934,31.934,0,0,1,.77,6.35q.019.8,0,1.6l-.007.4,0,.4q0,.4,0,.807l0,3.224q.006,2.72.021,5.44.008,1.7.018,3.4,0,.161,0,.323v.041l0,.36q0,.362,0,.725t0,.736q0,.345,0,.691,0,.368,0,.735,0,.219,0,.438c0,.076,0,.159,0,.236,0,.238,0,.481,0,.734q0,.321,0,.657c0,.239,0,.485,0,.734,0,.211,0,.424,0,.64l0,.344h0v.032c0,.118,0,.234,0,.354.025,4.025.054,8.845.093,12.053v0l6.814-2.505s0-4.96-.008-10.99c.65-.21,1.295-.435,1.928-.69a28.471,28.471,0,0,0,5.089-2.663,27.252,27.252,0,0,0,4.429-3.634,25.519,25.519,0,0,0,3.537-4.484c.5-.809.959-1.643,1.378-2.5s.795-1.725,1.13-2.611.634-1.786.89-2.7c.127-.456.237-.916.35-1.375.393-1.6.531-2.487.781-3.994C433.8,238.109,433.669,221.595,433.668,221.471Zm-58.083,15.892a13.524,13.524,0,0,1,4.117-4.733,22.45,22.45,0,0,1,6.464-2.944,17.9,17.9,0,0,1,1.869.317,15.582,15.582,0,0,1,4.618,1.816,13.435,13.435,0,0,1,2,1.469,12.773,12.773,0,0,1,1.684,1.82,12.261,12.261,0,0,1,1.285,2.119c.179.374.342.756.49,1.144s.279.783.4,1.182.225.8.324,1.207c.045.2.1.406.135.611l.063.307.058.308c.151.822.266,1.651.352,2.483s.143,1.669.179,2.506l.023.628.014.629c.006.42.009.838.01,1.26,0,.842.006,1.684.013,2.525l.021,2.525c.012,1.358.028,2.043.045,3.4-5.61,1.147-9.032-.063-9.741-.4q-.531-.251-1.053-.521t-1.033-.561q-.512-.29-1.013-.6t-.993-.631q-.982-.649-1.931-1.351c-.63-.469-1.261-.948-1.853-1.451-.075-.062-.148-.126-.221-.192l-.219-.194-.214-.2-.107-.1-.105-.1c-.282-.269-.551-.552-.815-.838A17.929,17.929,0,0,1,377.766,247a18.848,18.848,0,0,1-.961-2.138,19.442,19.442,0,0,1-.69-2.246,19.094,19.094,0,0,1-.416-2.317,15.034,15.034,0,0,1-.109-2.356c-.019.173-.03.347-.038.521-.01.22-.016.441-.016.662q0,.593.043,1.185a19.221,19.221,0,0,0,.32,2.353,18.792,18.792,0,0,0,1.52,4.51,18.323,18.323,0,0,0,2.646,3.986c.266.3.537.6.822.878l.106.107.108.1.216.209.221.2c.073.069.148.136.223.2.6.534,1.226,1.023,1.856,1.513a37.122,37.122,0,0,0,3.965,2.685,30.25,30.25,0,0,0,4.329,2.084,31.464,31.464,0,0,0,4.607,1.377c.783.173,1.572.316,2.363.438.3.046.6.084.9.123,0,.273.008.546.012.82a34.581,34.581,0,0,1-3.746-.636,30.272,30.272,0,0,1-4.639-1.455l-.564-.229-.554-.25c-.184-.085-.371-.164-.554-.253l-.547-.267q-1.09-.545-2.136-1.169c-.7-.416-1.377-.86-2.042-1.327s-1.313-.957-1.944-1.47c-.158-.128-.313-.259-.47-.389l-.464-.4-.458-.4-.445-.411a18.544,18.544,0,0,1-1.639-1.781,19.219,19.219,0,0,1-2.527-4.129c-.087-.183-.165-.37-.247-.556-.04-.093-.077-.187-.115-.28s-.077-.187-.111-.282l-.107-.284c-.034-.1-.066-.191-.1-.287-.068-.19-.123-.385-.185-.578-.113-.389-.217-.781-.3-1.177s-.162-.795-.223-1.2a18.8,18.8,0,0,1-.207-2.429q-.014-.61.015-1.222c.01-.2.022-.407.04-.61.013-.146.031-.291.049-.437l0-.056v-.026c-.07.372-.118.749-.153,1.126q-.056.611-.07,1.226a18.8,18.8,0,0,0,.115,2.456q.07.612.182,1.219c.075.4.168.806.27,1.205.056.2.107.4.17.594.031.1.06.2.092.3l.1.293c.032.1.069.2.1.292s.071.194.108.29c.077.191.151.384.233.572a19.5,19.5,0,0,0,2.477,4.283c.125.165.258.325.387.488s.269.316.4.474l.421.459c.145.148.289.3.436.445l.45.431.457.417.464.41c.157.134.312.27.47.4a32,32,0,0,0,8.445,5.172,30.479,30.479,0,0,0,4.743,1.519,35,35,0,0,0,3.926.669c0,.269.008.537.012.806a32.737,32.737,0,0,1-4.448-.739,29.486,29.486,0,0,1-4.78-1.589l-.578-.252c-.048-.021-.1-.041-.144-.063l-.142-.069-.284-.138-.568-.275c-.1-.045-.188-.094-.281-.143l-.28-.146c-.744-.394-1.475-.813-2.187-1.261a30.813,30.813,0,0,1-4.034-3.022l-.236-.21-.232-.214c-.077-.072-.155-.142-.231-.215l-.228-.218c-.3-.291-.6-.59-.887-.894a18.326,18.326,0,0,1-2.9-4.082c-.048-.093-.1-.185-.145-.279l-.139-.282-.069-.141-.066-.143-.132-.285c-.085-.192-.17-.384-.251-.578s-.161-.388-.236-.585c-.155-.391-.3-.788-.428-1.184s-.233-.8-.327-1.213-.164-.823-.222-1.239-.1-.835-.128-1.254a18.837,18.837,0,0,1,.007-2.527,16.99,16.99,0,0,1,.333-2.437v-.016c-.108.39-.192.785-.264,1.184q-.112.626-.182,1.259a18.888,18.888,0,0,0-.1,2.546c.013.426.041.851.086,1.275s.11.846.188,1.267.179.836.3,1.249.253.817.4,1.218a21.731,21.731,0,0,0,1,2.36,19.03,19.03,0,0,0,1.289,2.226,18.005,18.005,0,0,0,1.594,2.027c.146.157.29.32.441.471s.3.308.45.458l.228.226c.076.075.154.148.231.223l.233.222.236.218q.947.87,1.966,1.659c.679.525,1.382,1.02,2.1,1.486s1.461.9,2.218,1.312l.284.151c.095.051.189.1.286.148l.578.287.289.143.144.071c.049.023.1.044.147.066l.59.263a29.71,29.71,0,0,0,4.89,1.657,33.168,33.168,0,0,0,4.636.774c0,.143,0,.287.007.43,0,.117,0,.245.006.369l-.039,0a31.3,31.3,0,0,1-5.159-.845,29.277,29.277,0,0,1-4.927-1.728c-.4-.185-.8-.357-1.18-.564l-.582-.3c-.1-.05-.2-.1-.291-.151l-.286-.159c-.763-.424-1.513-.872-2.24-1.353a28.321,28.321,0,0,1-4.079-3.257c-.312-.3-.619-.612-.916-.931l-.223-.239c-.074-.08-.145-.162-.218-.243s-.146-.162-.216-.244l-.21-.249a18.823,18.823,0,0,1-1.525-2.1c-.059-.091-.114-.185-.169-.278l-.165-.28c-.108-.188-.211-.379-.315-.57l-.149-.29c-.049-.1-.1-.193-.146-.292-.092-.2-.19-.391-.276-.59a24.055,24.055,0,0,1-.933-2.44l-.1-.311-.1-.313-.048-.157-.044-.156c-.028-.1-.059-.208-.086-.313-.106-.42-.189-.846-.256-1.275s-.106-.863-.133-1.3-.034-.871-.027-1.307a19.382,19.382,0,0,1,.224-2.611,18.7,18.7,0,0,1,.549-2.516v-.008c-.143.4-.262.808-.37,1.218s-.208.855-.291,1.287-.151.868-.2,1.305-.094.877-.116,1.318-.031.883-.017,1.325.046.884.1,1.325.127.879.224,1.313c.024.108.053.216.079.325l.04.162.044.16.088.319.093.318a23.721,23.721,0,0,0,.889,2.5c.083.206.178.407.268.61.044.1.095.2.143.3l.145.3c.1.2.2.4.31.591l.163.291c.054.1.108.195.167.289a18.07,18.07,0,0,0,1.527,2.194l.211.26c.071.086.145.169.217.253s.144.169.218.252l.223.248c.3.331.606.651.92.967q.944.944,1.979,1.794c.689.566,1.405,1.1,2.143,1.6s1.5.968,2.271,1.405l.29.164c.1.054.2.1.3.157l.592.31c.391.215.8.395,1.2.587a29.553,29.553,0,0,0,5.041,1.8,31.811,31.811,0,0,0,5.282.876c.038,0,.075,0,.113.007q.006.379.012.784c-.217-.013-.435-.022-.651-.039a29.806,29.806,0,0,1-5.343-.9,29.1,29.1,0,0,1-5.08-1.877c-.817-.389-1.617-.814-2.4-1.267s-1.554-.931-2.3-1.448-1.461-1.064-2.151-1.647a24.765,24.765,0,0,1-1.971-1.853,22.782,22.782,0,0,1-1.742-2.066,19.385,19.385,0,0,1-1.453-2.272l-.082-.148-.077-.15-.154-.3c-.053-.1-.1-.2-.147-.3l-.145-.305c-.09-.206-.183-.412-.27-.62l-.127-.313-.063-.157-.059-.158a25.443,25.443,0,0,1-.821-2.583l-.086-.328-.082-.33-.041-.165-.036-.164c-.023-.11-.05-.218-.07-.329a12.378,12.378,0,0,1-.176-1.336c-.037-.449-.044-.9-.038-1.352s.034-.9.077-1.354a20.58,20.58,0,0,1,.441-2.683q.152-.664.343-1.32c.125-.423.259-.843.414-1.256v-.005c-.175.408-.328.824-.47,1.245s-.277.869-.4,1.31a20.535,20.535,0,0,0-.538,2.687c-.059.454-.1.91-.123,1.369s-.025.918,0,1.378a12.771,12.771,0,0,0,.142,1.375c.018.114.042.227.062.341l.033.17.036.168.073.335.078.334a25.092,25.092,0,0,0,.773,2.641l.057.163.061.161.123.323c.084.214.174.426.262.639l.141.316c.048.1.092.211.144.314l.151.311.076.156.08.153a18.66,18.66,0,0,0,1.449,2.361,23.365,23.365,0,0,0,1.751,2.146,25.418,25.418,0,0,0,1.988,1.931c.7.607,1.427,1.176,2.18,1.712s1.532,1.035,2.328,1.5,1.608.909,2.44,1.313a29.38,29.38,0,0,0,5.2,1.953,30.38,30.38,0,0,0,5.476.935c.241.019.482.029.723.043q.005.379.011.772c-.431-.017-.862-.041-1.292-.076a28.668,28.668,0,0,1-5.53-.975,29.437,29.437,0,0,1-5.237-2.03,34.656,34.656,0,0,1-4.818-2.9,26.783,26.783,0,0,1-2.186-1.763,22.959,22.959,0,0,1-1.972-1.99,20.575,20.575,0,0,1-1.695-2.226,20.244,20.244,0,0,1-1.368-2.44,20.943,20.943,0,0,1-1.023-2.608,26.616,26.616,0,0,1-.7-2.722c-.048-.23-.093-.46-.137-.691s-.082-.457-.112-.689a11.346,11.346,0,0,1-.09-1.394,16.265,16.265,0,0,1,.248-2.8,22.545,22.545,0,0,1,.655-2.744,23.808,23.808,0,0,1,.955-2.625v0c-.083.167-.162.336-.239.507q-.17.376-.327.759-.268.657-.5,1.329a22.639,22.639,0,0,0-.753,2.741c-.055.267-.1.536-.145.805A16.365,16.365,0,0,1,375.585,237.364Zm26.772-6.811-.012-.018.012.018Zm.872,1.354-.048-.08h0l.049.082Zm.728,1.33-.009-.018v0l.012.024Zm2.1,6.05,0-.008,0-.007,0,.021Zm.132.642,0-.016v0l0,.025Zm7.373,20.973c.676-.128,1.347-.277,2.009-.46a26.329,26.329,0,0,0,4.493-1.7c.145-.07.286-.148.43-.221a26.721,26.721,0,0,0,7.253-5.414c.033-.035.064-.072.1-.107.355-.347.688-.7,1.005-1.062l-.03.039c-.062.08-.122.162-.187.241l-.195.235c-.13.156-.258.315-.39.469l-.405.455-.2.227-.211.22-.421.441c-.144.143-.292.282-.437.424s-.29.284-.443.419c-.3.275-.608.539-.919.8-.165.136-.335.265-.5.4-.151.12-.3.243-.453.359-.649.488-1.315.953-2,1.384s-1.4.829-2.121,1.194-1.466.7-2.221.993-1.522.56-2.3.786c-.608.176-1.224.324-1.843.456Zm0,1.279a26.145,26.145,0,0,0,6.636-2.417,26.46,26.46,0,0,0,4.159-2.71c.325-.256.64-.523.953-.794s.617-.55.914-.837c.151-.141.294-.29.439-.437s.291-.293.434-.442l.417-.458.208-.229c.067-.078.133-.158.2-.237l.389-.466.008-.009c.129-.161.253-.325.38-.487l.189-.244c.063-.081.121-.167.182-.25l.36-.5.017-.026c-.048.075-.093.151-.144.223l-.357.522c-.03.043-.059.087-.09.13l-.094.127-.162.218-.026.035-.188.254c-.063.085-.125.17-.192.251l-.4.492c-.067.082-.131.164-.2.245l-.208.238-.416.475c-.067.081-.144.154-.216.23l-.218.228-.219.228c-.074.075-.144.153-.22.225-.6.59-1.227,1.154-1.882,1.684s-1.329,1.033-2.028,1.5-1.42.9-2.16,1.3-1.5.765-2.273,1.092-1.563.622-2.364.877c-.6.191-1.214.355-1.828.5Zm0,1.243c.685-.169,1.365-.358,2.035-.58q1.226-.407,2.41-.928t2.305-1.158a26.632,26.632,0,0,0,4.221-2.94c.654-.555,1.277-1.144,1.873-1.758.076-.076.146-.157.219-.235l.217-.237.217-.237c.071-.08.147-.156.213-.24l.411-.493.205-.246c.067-.083.13-.17.2-.254q.777-1.011,1.455-2.09a25.783,25.783,0,0,1-1.591,2.369,24.09,24.09,0,0,1-1.684,2l-.227.236q-.113.119-.229.234l-.231.232-.236.227-.118.114-.12.112-.24.222c-.163.145-.324.293-.49.435-.661.57-1.344,1.113-2.055,1.62s-1.446.977-2.2,1.412-1.533.833-2.327,1.192-1.6.684-2.43.967c-.592.2-1.193.379-1.8.543Q413.568,263.686,413.568,263.425Zm0,1.228c.68-.186,1.354-.39,2.018-.628q1.262-.451,2.475-1.02t2.36-1.259q1.147-.686,2.224-1.479a26.5,26.5,0,0,0,2.063-1.691c.166-.148.326-.3.489-.454l.239-.232.12-.116.117-.118.234-.236.23-.241c.077-.08.153-.161.228-.243l.225-.246a23.844,23.844,0,0,0,1.664-2.075q.729-1.024,1.353-2.114c-.018.033-.035.068-.054.1a27.156,27.156,0,0,1-1.45,2.3,24.5,24.5,0,0,1-1.675,2.135q-.448.509-.924.994c-.157.163-.32.32-.481.479-.08.08-.164.156-.246.234s-.164.157-.248.232c-.668.611-1.361,1.194-2.083,1.739s-1.473,1.052-2.246,1.522-1.569.9-2.385,1.292-1.649.745-2.5,1.057c-.576.211-1.16.4-1.748.572Q413.569,264.906,413.569,264.653Zm16.116-11.677c-.436.834-.91,1.648-1.426,2.433a26.229,26.229,0,0,1-1.667,2.269c-.45.546-.932,1.065-1.426,1.572-.161.165-.318.335-.484.5a27.831,27.831,0,0,1-4.408,3.489,28.718,28.718,0,0,1-5.017,2.536c-.555.216-1.119.409-1.686.59q0-.246,0-.494c.668-.2,1.33-.416,1.982-.664.865-.329,1.715-.7,2.543-1.111s1.635-.867,2.417-1.36,1.539-1.023,2.268-1.59a26.857,26.857,0,0,0,2.091-1.811c.084-.079.165-.161.247-.242s.165-.161.245-.244c.161-.166.323-.329.479-.5q.474-.5.918-1.032c.271-.322.53-.652.783-.987.3-.4.593-.805.869-1.221.478-.724.918-1.471,1.326-2.235C429.718,252.908,429.7,252.943,429.685,252.977Z" transform="translate(-365.035 -218.771)" fill="#51318f"/>
          </g>
        </g>
      </g>
      <path id="Tracé_27" data-name="Tracé 27" d="M522.815,180.521h0l-6.578-2.439-6.468,2.39v8l.735.293v-8.01l.618.235v8.022l.735.293v-8.036l.591.224v8.047l.735.293v-8.061l.59.224v8.072l.735.293v-8.085l.591.224v8.1l.735.293v-8.11l.647.246v8.159l6.336-2.556h0Z" transform="translate(-89.276)" fill="#51318f"/>
    </g>
    <g id="Groupe_17-2" data-name="Groupe 17" transform="translate(-146.52 -310.31)">
      <g id="Groupe_19" data-name="Groupe 19" transform="translate(357.094 379.564)">
        <path id="Tracé_12" data-name="Tracé 12" d="M373.258,394.22c3.123,0,5.7-2.274,5.7-6.144s-2.581-6.145-5.7-6.145-5.7,2.274-5.7,6.145,2.58,6.144,5.7,6.144m-.2-13.884A6.651,6.651,0,0,1,379,383.764l.067-3.021h1.561v14.665h-1.561L379,392.388a6.652,6.652,0,0,1-5.942,3.429c-4.244,0-7.3-3.293-7.3-7.74s3.055-7.74,7.3-7.74" transform="translate(-365.754 -380.336)" fill="#51318f"/>
        <path id="Tracé_13" data-name="Tracé 13" d="M393.622,380.336a8.131,8.131,0,0,1,4.889,1.392v1.732a8.016,8.016,0,0,0-4.652-1.528c-3.394,0-5.8,2.513-5.8,6.145s2.41,6.144,5.8,6.144a8.015,8.015,0,0,0,4.652-1.527v1.732a8.063,8.063,0,0,1-4.889,1.392c-4.209,0-7.367-3.192-7.367-7.74s3.158-7.74,7.367-7.74" transform="translate(-368.363 -380.336)" fill="#51318f"/>
      </g>
      <path id="Tracé_14" data-name="Tracé 14" d="M407.439,381.746v13.138h-1.8V381.746h-3.294v-1.527h3.294v-4.007h1.8v4.007h3.293v1.527Z" transform="translate(-13.317 -0.247)" fill="#51318f"/>
      <path id="Tracé_15" data-name="Tracé 15" d="M414.439,379.971h1.8v14.665h-1.8Zm0-5.7h1.8v2.308h-1.8Z" transform="translate(-14.856)" fill="#51318f"/>
      <g id="Groupe_20" data-name="Groupe 20" transform="translate(404.236 379.496)">
        <path id="Tracé_16" data-name="Tracé 16" d="M427.444,381.887a6.187,6.187,0,1,0,5.874,6.179,5.867,5.867,0,0,0-5.874-6.179m0-1.629a7.81,7.81,0,1,1-7.673,7.808,7.61,7.61,0,0,1,7.673-7.808" transform="translate(-419.771 -380.258)" fill="#51318f"/>
        <path id="Tracé_17" data-name="Tracé 17" d="M451.743,395.409v-8.351c0-3.8-1.561-5.024-4.04-5.024a5.442,5.442,0,0,0-5.263,5.024v8.351h-1.8V380.744H442.2l.136,2.952a6.665,6.665,0,0,1,5.771-3.36c3.6,0,5.431,2.274,5.431,6.45v8.623Z" transform="translate(-422.427 -380.268)" fill="#51318f"/>
      </g>
      <path id="Tracé_18" data-name="Tracé 18" d="M297.706,416.029h3.939V401.363h-3.939Zm0-17.144h3.939V395.66h-3.939Z" transform="translate(0 -2.722)" fill="#51318f"/>
      <g id="Groupe_21" data-name="Groupe 21" transform="translate(305.102 398.098)">
        <path id="Tracé_19" data-name="Tracé 19" d="M316.807,416.8v-8.114c0-2.851-.984-3.8-2.784-3.8a4.04,4.04,0,0,0-3.9,3.734V416.8h-3.938V402.136h3.6l.169,2.715a6.249,6.249,0,0,1,5.432-3.123c3.9,0,5.364,2.715,5.364,6.348V416.8Z" transform="translate(-306.181 -401.593)" fill="#51318f"/>
        <path id="Tracé_20" data-name="Tracé 20" d="M337.456,416.8v-8.114c0-2.851-.984-3.8-2.784-3.8a4.04,4.04,0,0,0-3.9,3.734V416.8H326.83V402.136h3.6l.17,2.715a6.247,6.247,0,0,1,5.431-3.123c3.9,0,5.364,2.715,5.364,6.348V416.8Z" transform="translate(-308.809 -401.593)" fill="#51318f"/>
        <path id="Tracé_21" data-name="Tracé 21" d="M354.655,404.458c-2.648,0-4.38,2.037-4.38,4.99,0,2.987,1.766,4.99,4.38,4.99s4.345-2,4.345-4.99c0-2.953-1.732-4.99-4.345-4.99m0,12.867a7.883,7.883,0,1,1,8.216-7.876,7.889,7.889,0,0,1-8.216,7.876" transform="translate(-311.3 -401.573)" fill="#51318f"/>
        <path id="Tracé_22" data-name="Tracé 22" d="M375.078,417.209a7.74,7.74,0,1,1,0-15.481,8.98,8.98,0,0,1,5.262,1.46v3.055a6.546,6.546,0,0,0-4.413-1.528,4.754,4.754,0,0,0,0,9.506,6.361,6.361,0,0,0,4.413-1.561v3.089a8.734,8.734,0,0,1-5.262,1.46" transform="translate(-313.964 -401.593)" fill="#51318f"/>
        <path id="Tracé_23" data-name="Tracé 23" d="M391.856,404.241c-1.663,0-3.089.95-3.428,3.225h6.28a2.645,2.645,0,0,0-2.852-3.225m6.179,5.33h-9.777c-.1,2.24,1.053,4.787,4.99,4.787A7.88,7.88,0,0,0,398,412.626v2.852a9.84,9.84,0,0,1-5.975,1.731,7.744,7.744,0,0,1-.271-15.48c3.734,0,6.518,2.342,6.518,5.8a9.293,9.293,0,0,1-.237,2.037" transform="translate(-316.13 -401.593)" fill="#51318f"/>
        <path id="Tracé_24" data-name="Tracé 24" d="M414.335,416.8v-8.114c0-2.851-.984-3.8-2.783-3.8a4.04,4.04,0,0,0-3.9,3.734V416.8h-3.938V402.136h3.6l.17,2.715a6.247,6.247,0,0,1,5.431-3.123c3.9,0,5.364,2.715,5.364,6.348V416.8Z" transform="translate(-318.593 -401.593)" fill="#51318f"/>
        <path id="Tracé_25" data-name="Tracé 25" d="M431.094,417.209a7.74,7.74,0,1,1,0-15.481,8.98,8.98,0,0,1,5.262,1.46v3.055a6.547,6.547,0,0,0-4.413-1.528,4.754,4.754,0,0,0,0,9.506,6.361,6.361,0,0,0,4.413-1.561v3.089a8.734,8.734,0,0,1-5.262,1.46" transform="translate(-321.093 -401.593)" fill="#51318f"/>
        <path id="Tracé_26" data-name="Tracé 26" d="M447.872,404.241c-1.663,0-3.089.95-3.428,3.225h6.28a2.645,2.645,0,0,0-2.852-3.225m6.179,5.33h-9.777c-.1,2.24,1.053,4.787,4.99,4.787a7.88,7.88,0,0,0,4.753-1.732v2.852a9.841,9.841,0,0,1-5.976,1.731,7.744,7.744,0,0,1-.271-15.48c3.734,0,6.518,2.342,6.518,5.8a9.293,9.293,0,0,1-.237,2.037" transform="translate(-323.259 -401.593)" fill="#51318f"/>
      </g>
    </g>
  </g>
</svg>